<?xml version="1.0" standalone="no"?>
<!DOCTYPE svg PUBLIC "-//W3C//DTD SVG 20010904//EN"
 "http://www.w3.org/TR/2001/REC-SVG-20010904/DTD/svg10.dtd">
<svg version="1.0" xmlns="http://www.w3.org/2000/svg"
 width="463.000000pt" height="521.000000pt" viewBox="0 0 463.000000 521.000000"
 preserveAspectRatio="xMidYMid meet">
<metadata>
Created by potrace 1.15, written by Peter Selinger 2001-2017
</metadata>
<g transform="translate(0.000000,521.000000) scale(0.100000,-0.100000)"
fill="#000000" stroke="none">
<path d="M0 4551 l0 -659 30 -12 c36 -15 88 -72 71 -78 -6 -2 -31 13 -54 34
l-42 39 -3 -49 c-4 -57 0 -63 33 -48 17 8 26 8 31 1 8 -14 -14 -29 -43 -29
l-23 0 0 -1230 c0 -676 2 -1230 4 -1230 2 0 30 12 62 27 53 25 71 28 164 28
95 0 110 -3 162 -28 106 -52 189 -177 196 -294 3 -35 6 -63 8 -63 17 0 70 38
66 48 -2 7 5 12 15 13 11 0 13 3 5 6 -7 3 -22 -3 -33 -13 -18 -16 -19 -16 -13
-1 3 10 1 17 -5 17 -6 0 -11 5 -11 11 0 5 4 8 9 5 4 -3 9 20 11 52 1 31 3 73
3 94 1 20 -1 34 -6 31 -4 -2 -7 0 -7 6 0 5 8 15 18 20 16 10 15 10 -3 11 -16
0 -17 2 -6 9 19 12 43 104 29 112 -5 4 -3 9 6 12 8 3 17 1 19 -6 2 -7 3 1 1
17 -5 38 -21 56 -48 56 -12 0 -27 5 -33 11 -7 7 -20 9 -30 5 -19 -8 -29 -5
-26 5 1 3 -30 21 -70 39 -40 19 -74 36 -77 39 -3 3 -27 24 -55 45 -67 53 -136
128 -130 143 2 7 -1 12 -6 10 -12 -2 -48 53 -80 123 -78 169 -58 456 43 621
15 25 28 50 28 54 0 17 134 177 197 235 37 34 67 67 65 72 -1 5 2 7 8 3 5 -3
22 2 38 13 15 11 46 29 70 41 56 28 117 92 99 103 -6 5 -43 27 -81 50 -85 50
-206 169 -268 263 -79 120 -111 192 -148 333 -12 45 -15 47 -63 27 -9 -4 -17
-3 -17 3 0 6 15 15 33 21 l34 11 0 90 c0 60 -3 90 -11 90 -6 0 -5 4 3 9 19 12
-16 60 -45 61 -39 0 -38 -30 2 -71 20 -20 34 -43 32 -51 -7 -19 -88 65 -88 91
0 31 18 61 36 61 8 0 18 8 21 18 14 35 76 58 85 31 2 -6 17 18 33 53 16 35 42
78 58 97 20 24 25 37 18 44 -17 17 -13 31 4 17 13 -11 23 -5 63 32 27 25 67
58 91 72 23 15 46 38 51 52 6 16 20 27 40 30 16 4 27 11 24 16 -8 13 25 48 46
48 9 0 26 -9 38 -20 19 -18 26 -19 71 -8 l51 11 -38 17 -37 17 42 1 c51 1 72
20 97 87 27 73 93 194 132 242 19 23 34 46 34 52 0 6 4 11 8 11 5 0 37 23 72
51 35 28 73 54 84 58 16 6 5 16 -62 52 -44 24 -80 45 -78 46 2 2 32 -9 67 -25
35 -16 78 -32 94 -36 l30 -8 -30 33 -30 32 33 -23 c17 -13 32 -28 32 -34 0 -5
3 -6 6 -3 4 3 -2 36 -12 72 l-19 65 -612 0 -613 0 0 -659z"/>
<path d="M1392 5188 c-6 -13 -16 -36 -22 -52 -9 -25 -8 -28 7 -21 10 3 60 9
111 12 61 3 119 13 165 29 39 13 72 22 74 20 5 -4 -92 -46 -109 -46 -7 -1 28
-11 77 -24 177 -46 316 -127 455 -266 49 -49 102 -114 124 -153 33 -57 41 -65
54 -55 13 11 14 10 2 -8 -11 -17 -8 -28 15 -74 l27 -53 40 78 c54 106 126 202
208 278 39 36 70 70 70 76 0 7 5 9 10 6 6 -4 39 11 73 34 34 22 88 52 119 66
l56 26 -25 74 -25 75 -184 0 c-132 0 -183 -3 -178 -11 5 -8 1 -8 -14 0 -30 16
-42 14 -35 -6 5 -15 3 -14 -10 2 -16 19 -16 19 -17 -12 0 -17 -4 -35 -10 -38
-6 -4 -10 8 -10 29 0 20 -4 36 -10 36 -5 0 -10 -4 -10 -10 0 -5 -5 -10 -11
-10 -5 0 -7 5 -4 10 3 6 -1 10 -9 10 -8 0 -18 -4 -21 -10 -3 -5 -11 -10 -16
-10 -6 0 -7 5 -4 10 4 7 -156 10 -473 10 l-479 0 -11 -22z"/>
<path d="M2926 5178 c8 -18 22 -50 31 -71 13 -32 20 -38 37 -32 85 24 189 37
271 32 310 -19 550 -227 636 -554 12 -47 27 -86 33 -88 322 -88 515 -262 582
-525 25 -99 15 -279 -21 -385 -50 -146 -125 -264 -246 -389 l-68 -69 55 -52
c30 -29 54 -58 54 -64 0 -6 3 -11 8 -11 13 0 65 -50 59 -57 -4 -3 -47 35 -96
86 l-88 92 -48 -32 c-26 -17 -99 -56 -162 -85 -96 -44 -111 -53 -91 -60 13 -4
63 -29 112 -57 189 -106 346 -299 427 -526 41 -113 52 -290 24 -404 -22 -93
-85 -214 -152 -293 -34 -40 -48 -64 -40 -67 9 -4 8 -8 -3 -16 -9 -6 -10 -11
-3 -11 6 0 20 -3 30 -6 14 -5 15 -4 4 4 -12 9 -12 12 1 26 15 14 16 11 12 -37
-3 -28 -7 -62 -9 -74 -4 -15 0 -23 12 -26 13 -2 9 -8 -17 -19 -19 -9 -28 -17
-19 -17 9 -1 22 -8 29 -16 10 -12 10 -15 -3 -15 -9 0 -22 -10 -28 -23 -7 -12
-23 -31 -37 -42 -14 -11 -34 -28 -44 -38 -10 -9 -22 -17 -27 -17 -5 0 -23 -12
-40 -26 -17 -14 -31 -21 -31 -14 0 6 -4 8 -10 5 -5 -3 -10 -1 -10 6 0 7 -2 10
-5 8 -7 -7 6 -49 14 -45 4 3 8 -7 9 -21 1 -14 9 -46 17 -70 17 -51 12 -72 -6
-27 -25 65 -64 146 -71 150 -4 3 -5 -1 -2 -9 3 -8 1 -18 -5 -22 -6 -3 -12 -16
-12 -28 -1 -17 -2 -18 -6 -4 -5 21 -22 22 -29 2 -4 -8 -10 -12 -15 -9 -6 3
-15 1 -22 -4 -13 -10 -67 -26 -79 -24 -5 1 -8 -5 -8 -13 0 -10 -11 -15 -35
-15 -20 0 -35 -5 -35 -12 0 -6 -6 -3 -14 8 -13 16 -13 21 0 35 8 8 14 20 14
25 -1 14 -40 -37 -40 -52 0 -8 -5 -14 -11 -14 -6 0 -8 7 -5 16 3 9 2 12 -5 9
-5 -4 -8 -19 -6 -33 2 -15 2 -21 0 -14 -4 10 -8 10 -19 1 -8 -6 -17 -9 -21 -5
-3 3 -1 6 6 6 7 0 10 4 7 9 -4 5 -34 -20 -68 -55 -34 -36 -82 -78 -107 -94
-25 -16 -51 -33 -56 -38 -6 -5 -47 -23 -90 -40 -85 -32 -174 -52 -236 -52 -28
0 -36 -4 -35 -17 1 -11 -10 -20 -30 -26 -37 -11 -80 12 -94 48 -5 13 -21 26
-37 29 -15 4 -71 28 -123 54 -52 25 -110 46 -128 47 -30 1 -32 0 -16 -12 10
-7 21 -13 25 -13 4 0 2 -11 -4 -25 -7 -14 -15 -25 -18 -25 -3 0 -7 -25 -8 -56
-1 -34 -7 -62 -16 -71 -8 -8 -15 -21 -15 -29 0 -17 -66 -20 -72 -2 -2 6 -12
-18 -21 -53 -14 -53 -16 -57 -13 -22 3 28 -1 46 -10 54 -8 7 -14 32 -15 63 -1
44 -2 47 -8 20 -5 -17 -5 -58 -3 -90 5 -52 7 -55 14 -29 5 21 6 15 3 -20 -3
-28 3 -111 14 -185 l19 -135 143 -142 143 -143 913 0 913 0 0 2605 0 2605
-859 0 -860 0 15 -32z m-169 -4701 c11 -73 -67 -106 -122 -52 -39 40 -31 115
13 115 10 0 12 -10 7 -42 -5 -36 -3 -45 14 -55 16 -10 24 -9 42 6 28 22 19 39
-51 104 -44 40 -50 50 -39 63 11 13 20 7 71 -43 44 -44 60 -68 65 -96z"/>
<path d="M1490 4945 c0 -2 17 -13 38 -24 49 -27 27 -27 -27 0 -45 22 -98 19
-85 -4 5 -9 4 -9 -6 0 -9 8 -19 9 -32 2 -21 -11 -22 -18 -9 -52 l10 -24 53 17
c67 23 163 32 208 21 l35 -9 -42 -1 c-67 -2 -51 -18 30 -31 227 -36 356 -108
472 -262 72 -96 148 -275 171 -400 3 -21 9 -38 13 -38 3 0 6 -15 5 -32 -1 -18
3 -62 7 -98 15 -111 19 -351 8 -440 -6 -47 -11 -92 -11 -100 0 -33 -48 -298
-62 -345 -9 -27 -14 -51 -12 -52 2 -2 15 1 28 6 23 9 28 20 42 98 9 48 20 119
25 157 6 37 12 70 14 72 2 3 7 -57 11 -133 4 -76 9 -155 11 -175 2 -21 -1 -38
-6 -38 -5 0 -10 8 -10 18 -1 15 -2 38 -8 157 -2 33 -4 36 -11 19 -5 -12 -11
-46 -14 -75 -8 -82 -15 -120 -30 -169 -12 -41 -17 -46 -57 -57 -24 -6 -55 -12
-69 -12 -14 -1 -32 -6 -40 -11 -13 -9 -13 -11 0 -20 8 -5 41 -15 73 -21 40 -8
57 -16 53 -25 -3 -7 2 -15 11 -18 9 -4 13 -9 10 -13 -4 -3 -28 5 -54 17 -26
12 -70 23 -99 24 -28 2 -56 6 -62 10 -6 3 -13 2 -16 -3 -13 -20 8 -39 59 -55
66 -21 80 -36 98 -111 34 -131 71 -587 52 -632 -4 -10 -9 -49 -10 -88 -5 -130
-56 -359 -111 -494 -38 -95 -38 -95 -24 -86 6 3 7 -1 4 -9 -3 -9 -9 -14 -13
-12 -4 3 -22 -18 -41 -47 -80 -117 -210 -232 -307 -269 -98 -38 -284 -65 -268
-38 3 6 23 10 43 10 54 0 173 31 165 43 -3 6 -1 7 6 3 6 -4 25 0 41 8 17 9 45
24 63 33 35 18 187 166 187 182 0 6 -14 26 -31 46 l-31 35 37 42 c30 35 105
175 146 273 46 109 94 470 61 457 -10 -3 -11 3 -7 24 4 22 3 24 -3 9 -5 -11
-6 -43 -2 -72 3 -29 3 -50 -2 -47 -4 3 -8 20 -8 38 0 19 -7 47 -15 62 -8 16
-15 37 -15 47 0 10 -8 17 -18 17 -24 0 -58 40 -42 50 15 9 -11 20 -46 20 -13
0 -24 5 -24 11 0 5 -5 7 -11 3 -6 -3 -15 0 -20 7 -14 23 -10 32 11 26 13 -3
20 0 20 9 0 8 -10 14 -26 14 -46 0 -64 17 -64 60 0 36 -3 40 -25 40 -14 0 -24
5 -23 12 2 6 -8 14 -22 18 -14 4 -24 12 -23 18 1 6 -18 23 -42 39 -25 15 -48
36 -51 46 -3 9 -11 17 -19 17 -7 0 -27 17 -44 37 -22 27 -27 39 -18 45 12 9
-183 2 -238 -8 -275 -50 -481 -149 -641 -309 -76 -77 -149 -202 -139 -236 4
-11 2 -19 -4 -19 -6 0 -11 -7 -11 -15 0 -8 -4 -15 -9 -15 -5 0 -14 -13 -21
-29 -6 -16 -22 -38 -36 -50 -22 -19 -27 -20 -58 -7 -18 8 -41 24 -50 37 -9 13
-16 19 -16 14 0 -6 -10 10 -21 35 -80 176 67 478 306 629 93 59 345 141 434
141 21 0 31 4 24 8 -7 4 18 9 55 10 87 3 120 7 128 14 3 4 18 3 32 -2 15 -4
120 -9 232 -11 160 -3 204 -1 202 9 -1 7 9 12 27 12 16 0 43 6 61 14 29 12 4
13 -211 13 -257 0 -377 4 -394 14 -16 10 -74 21 -111 21 -19 0 -31 4 -28 9 3
5 -4 9 -15 9 -30 0 -208 58 -264 87 -26 13 -53 21 -60 17 -7 -4 -9 -4 -5 1 4
4 -18 26 -50 47 -164 114 -271 276 -307 468 -4 19 -13 45 -21 57 -8 12 -14 30
-15 40 0 16 -1 15 -8 -2 -8 -19 -9 -18 -13 5 -4 24 -5 24 -23 -12 -17 -35 -17
-39 0 -110 22 -92 51 -159 108 -245 128 -198 301 -316 563 -383 65 -17 120
-33 123 -35 2 -3 -12 -5 -33 -5 -92 0 -294 -55 -413 -112 -255 -123 -453 -424
-453 -687 0 -284 211 -523 520 -591 l55 -12 18 -90 c18 -95 47 -173 81 -223
12 -16 21 -33 21 -37 0 -3 4 -10 9 -15 5 -5 6 -3 2 4 -4 7 -3 13 2 13 6 0 13
-7 16 -16 4 -9 9 -15 11 -12 3 2 -7 40 -21 84 -59 178 -72 224 -65 220 4 -3 2
25 -4 61 l-11 65 -74 19 c-262 66 -451 260 -481 493 -11 90 1 108 18 25 40
-197 210 -386 417 -463 39 -15 50 -16 56 -5 13 19 8 23 -70 53 -113 45 -289
171 -267 192 4 4 14 -2 24 -14 56 -63 172 -128 296 -162 l72 -21 29 33 c16 18
25 26 21 18 -5 -8 -15 -23 -23 -32 -15 -18 -18 -17 61 -33 20 -4 22 -10 22
-67 0 -74 25 -123 100 -201 l46 -47 17 30 c9 16 20 30 25 30 10 0 -3 -54 -15
-58 -12 -5 -10 -32 3 -32 5 0 7 5 3 12 -4 7 -3 8 4 4 6 -4 8 -14 5 -22 -4 -10
-1 -15 8 -14 30 5 40 -1 50 -29 8 -23 14 -27 37 -24 21 4 24 2 12 -6 -12 -9
-10 -11 10 -12 25 -1 24 -1 -5 -14 -24 -11 -26 -14 -9 -15 17 0 66 14 178 50
55 18 36 4 -37 -28 -39 -17 -84 -36 -99 -41 -16 -6 -28 -15 -28 -21 0 -6 4 -8
10 -5 5 3 8 0 5 -7 -3 -8 12 -23 36 -36 30 -18 38 -27 30 -35 -16 -16 -14 -25
7 -30 9 -3 -3 -3 -28 0 -25 4 -48 11 -52 17 -5 8 -8 7 -8 -1 0 -14 35 -35 43
-26 4 3 5 -4 2 -15 -4 -23 25 -39 47 -26 8 4 10 3 5 -2 -5 -5 10 -14 35 -20
l43 -12 -56 -1 c-31 -1 -77 5 -102 13 -29 9 -44 10 -40 3 4 -7 0 -8 -11 -4
-10 4 -20 7 -22 7 -3 0 -2 4 1 10 3 5 0 7 -8 4 -8 -3 -40 6 -72 20 -70 32 -69
31 -50 3 8 -13 12 -26 9 -29 -10 -11 135 -76 194 -89 85 -17 241 -6 327 24
169 59 322 167 417 295 43 57 113 191 124 235 14 59 14 14 0 -139 -8 -88 -18
-217 -21 -289 -13 -309 -15 -385 -10 -385 2 0 23 7 45 16 32 13 40 21 40 42 0
14 3 22 7 18 8 -7 6 -256 -2 -264 -3 -3 -5 43 -5 103 0 85 -3 105 -13 97 -6
-5 -27 -13 -44 -17 -25 -5 -32 -11 -30 -27 2 -11 10 -24 18 -29 11 -7 10 -9
-4 -9 -18 0 -18 -12 -13 -242 3 -134 9 -269 12 -301 l7 -58 53 2 c48 2 52 4
43 21 -5 10 -7 23 -4 28 3 6 -1 10 -9 10 -8 0 -20 -8 -25 -17 -6 -10 -11 -13
-11 -6 0 6 8 19 17 29 15 14 17 39 16 183 -1 128 1 151 7 101 5 -36 9 -102 11
-147 3 -88 14 -103 43 -61 9 12 18 19 21 16 3 -2 -9 -19 -26 -37 -22 -24 -29
-39 -25 -54 3 -12 6 -32 6 -44 0 -20 5 -23 41 -23 39 0 40 1 35 27 -5 26 -9
58 -21 143 -26 190 -71 689 -60 665 2 -5 15 -111 29 -235 14 -124 37 -306 51
-404 14 -98 25 -183 25 -187 0 -5 15 -9 33 -9 l33 0 -33 222 c-77 524 -113
892 -127 1293 -4 106 -3 131 5 105 57 -194 83 -263 124 -330 120 -196 352
-356 562 -389 94 -14 103 -14 103 5 0 14 3 14 15 4 28 -23 131 -4 225 41 117
56 212 153 274 282 58 119 60 129 37 155 -24 28 -35 28 -49 -3 -12 -25 -7 -55
9 -55 5 0 9 -5 9 -11 0 -8 -5 -7 -16 2 -14 11 -18 10 -31 -6 -7 -11 -11 -30
-8 -42 4 -16 2 -21 -9 -17 -8 3 -23 -11 -40 -40 -32 -55 -171 -183 -208 -191
-38 -9 -54 -30 -31 -44 10 -6 13 -11 7 -11 -6 0 -17 6 -23 13 -11 14 -67 11
-77 -4 -3 -5 -19 -9 -36 -9 -17 0 -40 -7 -50 -17 -17 -15 -18 -15 -18 0 0 12
-9 17 -27 18 -27 2 -27 2 -3 6 14 3 29 9 34 14 6 5 18 9 28 9 12 0 18 7 18 21
0 17 -3 19 -14 10 -73 -61 -260 -27 -418 76 -143 93 -271 280 -314 456 -11 45
-22 67 -32 67 -11 0 -12 3 -3 14 9 11 10 25 2 53 -6 21 -11 55 -11 76 0 20 -5
37 -11 37 -6 0 -9 6 -6 14 3 7 1 65 -5 127 -11 119 4 402 23 425 5 6 6 13 3
16 -15 16 58 334 91 397 8 17 28 31 54 38 115 36 534 80 657 70 58 -4 64 -3
64 14 0 16 -8 19 -52 19 -137 0 -480 57 -616 101 -85 28 -90 38 -128 254 -19
103 -31 635 -15 635 5 0 8 20 8 44 -1 24 1 42 6 39 4 -2 7 18 7 44 0 27 5 54
11 60 6 6 12 34 12 62 1 28 4 46 6 40 2 -7 14 19 26 57 30 96 78 197 120 255
19 27 35 51 35 53 0 2 -10 2 -22 -1 -13 -3 -1 10 29 30 28 19 64 47 80 62 15
15 45 39 67 53 33 23 36 27 20 33 -14 6 -11 8 14 8 18 1 52 11 74 22 l42 21
-37 20 -38 19 -62 -37 c-78 -47 -257 -222 -238 -233 9 -6 8 -9 -6 -13 -37 -10
-116 -203 -157 -383 l-23 -100 -7 50 c-31 219 -118 428 -227 548 -113 124
-275 227 -414 262 -54 14 -235 22 -235 10z"/>
<path d="M1313 4894 c-7 -3 -9 -13 -6 -22 4 -13 3 -14 -5 -3 -14 20 -63 -12
-92 -58 -12 -20 -19 -28 -16 -18 9 29 -11 19 -49 -25 -83 -97 -129 -187 -163
-318 l-19 -74 -80 -17 c-221 -48 -384 -163 -468 -332 -35 -70 -43 -119 -25
-147 8 -12 10 -10 11 10 1 24 2 23 8 -4 6 -27 9 -23 53 61 99 188 259 304 481
350 72 14 87 21 87 36 0 37 31 138 65 209 52 112 132 203 243 278 21 14 21 18
10 48 -13 33 -14 34 -35 26z"/>
<path d="M3388 4862 c-21 -10 -38 -19 -38 -22 0 -3 29 -20 64 -38 78 -40 175
-136 228 -224 41 -67 83 -186 93 -265 l7 -48 76 -18 c108 -26 213 -78 293
-142 124 -102 190 -221 205 -371 8 -73 -10 -91 -21 -21 -18 115 -76 239 -145
308 -91 91 -189 142 -355 184 l-90 23 -7 62 c-16 140 -81 273 -186 377 -40 40
-78 73 -84 73 -7 0 7 -18 31 -39 24 -22 48 -48 55 -59 6 -11 29 -50 50 -88 49
-83 79 -166 101 -270 9 -43 17 -79 18 -81 2 -1 50 -14 107 -28 58 -14 133 -37
167 -51 121 -50 207 -130 201 -189 -3 -28 -5 -30 -42 -28 -52 4 -115 46 -206
139 -88 91 -156 128 -225 122 l-44 -3 -6 60 c-11 104 -44 227 -80 297 -37 73
-42 81 -94 136 -34 36 -35 36 -44 14 -8 -18 -6 -25 8 -36 16 -12 14 -13 -16
-9 -27 3 -30 1 -14 -6 54 -25 81 -35 95 -35 22 -1 69 -86 76 -138 4 -27 3 -48
-2 -48 -12 0 -42 50 -70 115 -17 37 -29 51 -50 57 -15 4 -31 5 -35 2 -5 -3
-18 0 -29 6 -14 8 -26 8 -40 0 -14 -8 -26 -8 -42 0 -21 10 -21 10 -6 -3 10 -8
15 -17 11 -20 -3 -4 2 -16 12 -27 21 -24 4 -27 -20 -4 -12 12 -19 13 -29 5
-11 -9 -18 -8 -29 4 -19 18 -28 19 -26 3 4 -34 -3 -40 -16 -13 l-14 30 6 -30
c3 -16 14 -60 25 -96 l19 -67 57 -7 c122 -14 213 -81 272 -200 31 -62 34 -77
34 -155 0 -75 -3 -94 -28 -143 -31 -60 -80 -115 -90 -99 -3 5 8 47 25 93 37
101 36 177 -2 254 -67 135 -260 197 -398 129 -29 -15 -55 -34 -59 -43 -3 -9
-11 -20 -18 -26 -30 -25 -54 -91 -54 -150 0 -106 66 -206 156 -235 77 -26 197
11 234 73 15 24 20 50 20 101 0 68 -1 70 -40 108 -36 33 -47 38 -90 38 -43 0
-54 -4 -85 -35 -38 -39 -46 -81 -23 -129 25 -56 106 -48 92 9 -3 11 2 29 10
40 12 16 19 18 32 9 43 -26 43 -66 -1 -118 -20 -26 -31 -30 -72 -30 -85 0
-143 52 -151 134 -7 71 12 113 69 159 36 29 62 41 100 46 50 7 50 7 45 39 l-6
31 13 -35 c8 -20 22 -37 33 -39 50 -9 105 -65 141 -141 89 -194 -115 -399
-349 -351 -112 24 -194 105 -224 223 -52 201 61 383 271 437 l63 16 -28 58
c-16 31 -33 70 -39 85 l-11 27 5 -30 6 -30 -22 32 c-17 27 -39 36 -39 17 0 -3
5 -2 10 1 6 3 10 -1 10 -10 0 -9 -4 -14 -8 -11 -5 3 -9 -11 -10 -31 -2 -57
-12 -52 -12 6 l0 52 -51 -27 c-52 -29 -99 -75 -99 -99 0 -7 -7 -19 -17 -26
-15 -13 -15 -12 -4 10 11 19 11 23 -1 19 -22 -7 -134 -154 -176 -231 -78 -141
-150 -380 -140 -463 2 -19 1 -34 -3 -34 -11 0 -23 -220 -12 -231 5 -5 8 4 6
24 -2 17 0 52 6 77 l9 45 3 -55 2 -55 7 65 c5 52 7 56 8 23 1 -23 7 -45 12
-48 6 -3 10 -2 10 3 0 6 9 8 21 5 14 -4 17 -8 8 -13 -19 -13 -3 -39 20 -33 15
4 21 1 21 -10 0 -9 8 -18 18 -20 15 -4 15 -5 0 -6 -11 -1 -15 -7 -11 -22 4
-14 8 -17 13 -8 5 7 16 9 26 5 18 -7 18 -8 1 -18 -17 -9 -18 -11 -1 -29 9 -10
32 -21 50 -25 28 -5 32 -10 32 -35 -1 -17 -7 -29 -17 -32 -9 -2 12 -6 47 -11
58 -7 75 -17 52 -31 -28 -17 21 -68 57 -59 16 4 25 1 29 -10 7 -18 54 -22 54
-5 0 5 4 8 9 4 5 -3 12 -1 16 5 10 16 23 12 30 -11 4 -11 9 -19 11 -16 3 2 -6
34 -19 71 -14 36 -21 69 -16 72 5 3 9 -2 9 -10 0 -9 4 -16 8 -16 5 0 15 -19
22 -42 7 -24 15 -37 17 -30 3 6 9 12 14 12 6 0 5 -9 -1 -21 -7 -11 -9 -23 -6
-27 3 -3 6 0 6 7 0 9 8 11 26 7 17 -5 23 -3 19 4 -3 5 2 10 13 10 27 0 154
-41 172 -55 8 -7 25 -11 37 -10 14 1 29 -7 38 -22 9 -14 26 -24 43 -24 27 -2
27 -2 2 -7 -22 -4 -23 -5 -6 -11 40 -15 185 37 305 109 64 39 86 48 92 38 6
-10 19 -2 50 29 38 38 41 44 28 60 -13 16 -13 17 4 4 16 -12 28 -3 132 101 63
62 115 109 116 103 1 -23 28 63 28 95 1 19 6 42 12 50 7 11 9 -3 5 -50 -9
-127 -54 -237 -137 -337 -27 -32 -47 -63 -44 -70 2 -7 -2 -10 -12 -6 -9 4 -21
0 -27 -9 -19 -26 -142 -98 -237 -139 -51 -21 -96 -44 -100 -50 -4 -7 -9 -7
-13 -1 -3 6 -21 6 -50 -1 -25 -6 -43 -13 -41 -17 4 -7 -71 -21 -195 -36 -52
-6 -70 -16 -70 -40 0 -13 146 -36 180 -28 20 4 22 3 10 -5 -13 -9 -12 -11 6
-11 31 0 86 -25 77 -35 -5 -4 2 -5 15 -2 12 3 20 2 17 -2 -4 -8 37 -31 56 -31
23 0 195 -94 250 -135 151 -117 251 -310 248 -479 l-2 -61 -11 70 c-15 90 -55
215 -69 215 -6 0 -7 3 -4 6 20 20 -166 224 -204 224 -8 0 -28 -13 -43 -29
l-28 -29 -59 43 c-60 44 -143 88 -189 100 -25 6 -25 6 -5 -11 20 -16 20 -16
-3 -11 -23 5 -23 5 -6 -14 9 -10 14 -19 9 -19 -4 0 3 -9 16 -21 26 -22 23 -22
-39 -4 -16 4 -24 2 -28 -10 -10 -24 -94 -105 -109 -105 -32 0 -21 -90 19 -168
18 -35 19 -42 8 -42 -12 0 -42 56 -34 65 4 5 1 5 -6 1 -8 -5 -24 5 -42 24 -17
18 -30 29 -30 26 0 -4 -10 2 -22 14 -23 21 -43 26 -52 12 -2 -4 -18 -9 -35
-10 -25 -2 -29 1 -24 15 14 36 -61 -32 -352 -320 l-296 -292 12 -35 c7 -19 15
-39 19 -45 4 -5 13 -27 19 -47 7 -20 23 -44 37 -53 14 -9 24 -24 22 -33 -3
-19 21 -82 31 -82 4 0 17 -17 29 -38 19 -34 113 -130 185 -190 15 -12 62 -36
103 -52 111 -44 149 -66 167 -94 21 -32 21 -55 1 -84 -14 -21 -14 -22 8 -22
13 0 29 -5 35 -11 8 -8 20 -6 44 6 19 10 36 19 38 21 2 1 -7 17 -20 35 -20 29
-21 34 -8 57 8 14 20 27 28 30 11 4 12 -3 7 -32 -4 -23 -3 -36 4 -36 5 0 10
-7 10 -15 0 -8 3 -15 7 -15 10 0 63 52 63 62 0 16 -22 8 -40 -15 -10 -12 -22
-19 -26 -15 -4 5 3 16 14 27 29 24 28 31 -8 64 -16 16 -30 33 -30 38 0 12 23
12 36 -1 7 -7 17 7 31 40 15 35 18 50 9 50 -23 0 -56 46 -56 78 0 38 33 72 71
72 32 0 85 -48 69 -64 -13 -13 -13 -66 0 -66 13 0 43 107 36 126 -3 8 -2 13 3
10 5 -4 12 18 16 46 11 88 9 86 71 82 33 -2 52 0 49 6 -3 6 -13 10 -21 10 -8
0 -14 4 -14 9 0 5 -9 13 -21 16 -11 4 -18 9 -15 12 2 3 30 -5 62 -16 31 -12
59 -19 62 -16 3 3 1 5 -4 5 -6 0 -19 7 -30 15 -18 14 -18 14 4 8 16 -4 22 -1
22 10 0 18 42 67 58 67 6 0 15 12 21 28 l11 27 -5 -29 c-5 -25 -4 -27 9 -13
14 14 13 24 -9 98 -37 123 -31 126 18 9 6 -14 10 -28 9 -32 -1 -5 2 -8 8 -8 5
0 10 -6 10 -14 0 -7 6 -25 13 -39 13 -24 14 -24 25 -7 9 16 9 18 -2 14 -19 -7
-28 22 -10 37 12 10 13 9 8 -7 -6 -16 -5 -17 7 -7 19 18 32 16 25 -3 -5 -14
-4 -15 9 -4 23 19 19 31 -24 78 -51 55 -35 54 26 -2 26 -24 52 -41 58 -38 11
7 22 10 64 18 42 8 197 158 216 209 l15 40 -5 -60 c-12 -132 -79 -266 -175
-346 -104 -87 -115 -97 -109 -103 3 -4 18 5 33 19 43 40 44 29 1 -16 -22 -23
-32 -39 -23 -36 9 3 35 11 57 17 96 25 212 163 257 304 51 163 26 359 -67 525
-130 230 -319 371 -584 435 -38 9 -83 21 -100 26 -16 5 -50 12 -75 16 -43 7
-40 8 57 20 352 43 581 169 740 407 271 405 99 859 -370 978 l-85 22 -7 46
c-28 197 -133 375 -276 468 -75 48 -78 48 -131 25z"/>
<path d="M1574 4835 c11 -8 25 -15 30 -15 21 0 -19 -20 -41 -20 -16 0 -21 -4
-17 -15 4 -9 0 -15 -10 -15 -9 0 -16 -4 -16 -9 0 -5 -13 -14 -30 -21 -16 -7
-30 -18 -30 -24 -1 -6 -7 0 -15 14 -21 37 -19 5 6 -86 11 -41 19 -77 17 -79
-2 -2 -19 36 -38 85 -29 75 -38 89 -60 93 -14 3 -32 1 -40 -4 -12 -8 -11 -9 5
-5 47 13 61 -36 32 -107 -8 -19 -54 -75 -102 -123 -120 -122 -137 -150 -144
-232 l-6 -67 -40 -3 c-142 -10 -326 -70 -405 -133 -45 -35 -100 -106 -100
-126 0 -5 4 -2 9 5 6 11 11 10 25 -4 14 -13 15 -19 5 -25 -27 -17 16 -19 66
-4 70 21 78 17 22 -10 -41 -19 -46 -25 -34 -37 8 -7 24 -54 37 -103 27 -107
70 -190 139 -267 49 -54 171 -158 186 -158 4 0 75 66 157 148 138 136 162 159
156 148 -2 -3 -70 -72 -151 -154 l-148 -149 38 -26 c98 -68 346 -150 486 -160
46 -3 53 6 12 16 -12 3 -6 5 15 6 24 1 31 4 21 10 -11 7 -9 10 8 16 11 3 21
12 21 19 0 16 53 76 67 76 6 0 13 7 17 15 3 8 12 15 20 15 9 0 20 9 26 19 5
11 20 21 32 23 25 3 28 23 13 87 -11 47 8 33 25 -18 14 -42 30 -55 30 -23 0
14 2 15 10 2 8 -12 11 -13 19 -1 7 11 9 11 14 0 4 -10 6 -10 6 -1 1 6 10 12
21 12 11 0 23 7 26 15 4 10 19 15 43 15 29 0 40 6 56 30 11 17 30 30 45 32 17
2 26 10 28 26 2 12 8 22 13 22 5 0 9 6 9 13 0 7 9 18 20 25 11 7 17 18 14 27
-5 11 1 15 19 15 14 0 28 -6 30 -12 3 -7 6 -3 6 10 1 19 -3 22 -26 17 l-28 -5
30 14 c17 8 33 12 37 10 15 -9 19 44 11 150 -7 102 -10 109 -32 117 -18 7 -22
6 -18 -5 4 -9 -2 -17 -13 -21 -10 -3 -22 -15 -25 -26 -5 -14 -12 -18 -26 -14
-23 8 -23 8 -4 -44 19 -56 2 -52 -26 6 -22 45 -24 47 -30 23 -4 -14 -7 -20 -8
-13 -1 7 -15 11 -33 10 -25 -2 -33 2 -32 15 1 10 -4 14 -12 11 -8 -3 -14 -9
-14 -14 0 -5 -4 -9 -10 -9 -5 0 -10 6 -10 13 0 17 -33 48 -68 64 l-27 12 30
-3 c17 -2 24 -1 16 1 -12 4 -12 6 0 14 9 6 -2 7 -31 4 l-45 -6 30 18 c17 10
30 25 30 33 -1 8 1 20 4 25 9 17 9 55 -1 55 -15 0 -8 21 10 27 21 8 34 21 50
48 6 11 12 14 12 8 0 -7 5 -13 11 -13 6 0 8 9 5 20 -3 11 -8 30 -11 43 -5 20
-4 20 7 -3 17 -34 29 -41 61 -34 17 3 27 1 27 -6 0 -7 8 -5 22 4 26 19 38 20
38 6 0 -6 12 -23 26 -37 20 -20 28 -23 37 -13 7 8 7 10 1 7 -6 -4 -11 5 -11
21 0 29 -64 171 -91 203 -16 18 -17 18 -44 -8 -15 -15 -28 -24 -28 -20 0 3 12
17 27 31 25 23 26 27 13 51 -13 25 -12 28 18 51 18 14 32 30 32 35 0 17 -56
93 -102 137 -92 91 -195 143 -321 164 -39 6 -74 15 -77 18 -3 4 -21 11 -40 14
-33 7 -34 6 -16 -9z"/>
<path d="M1236 4676 c5 -13 4 -17 -4 -12 -30 18 -128 -185 -156 -324 -12 -64
-13 -65 -47 -68 -182 -17 -391 -132 -464 -257 -17 -29 -17 -30 1 -9 11 11 39
36 64 54 25 19 47 37 50 41 27 34 246 121 337 134 29 4 56 12 61 18 5 7 22 59
37 117 27 106 79 240 98 251 5 4 6 12 2 19 -5 8 -4 11 2 7 6 -4 16 0 23 9 10
12 11 17 1 27 -10 9 -11 8 -5 -7z"/>
<path d="M4108 3381 c-105 -105 -106 -107 -85 -124 11 -9 18 -20 14 -23 -4 -4
-16 1 -27 11 -19 18 -21 17 -49 -12 -16 -17 -35 -33 -42 -35 -12 -4 -12 -8 0
-22 16 -19 56 -18 56 1 0 6 4 15 9 20 5 5 6 3 2 -4 -30 -52 114 76 167 149 29
39 69 126 65 139 -2 4 -51 -41 -110 -100z"/>
<path d="M2802 2586 c-17 -7 -37 -17 -44 -24 -7 -7 -19 -13 -27 -13 -9 -1 -2
-5 14 -8 l30 -8 -28 -13 c-20 -10 -24 -16 -15 -23 8 -5 -2 -7 -27 -3 l-40 5 3
-42 c3 -39 1 -43 -33 -61 -20 -11 -43 -33 -51 -48 -8 -16 -19 -26 -24 -23 -6
4 -10 0 -10 -7 0 -18 -23 -68 -31 -68 -4 0 -5 36 -2 80 3 50 0 80 -6 80 -18 0
-4 -323 18 -439 11 -57 23 -106 25 -109 5 -5 74 49 75 59 1 3 105 109 232 235
127 126 235 239 240 252 10 25 -7 52 -28 45 -6 -2 -14 1 -18 6 -3 6 -19 11
-34 11 -17 0 -38 10 -52 24 -14 13 -38 26 -54 28 -17 1 -31 9 -31 16 -1 6 -2
19 -3 28 -1 12 -7 15 -21 10 -52 -16 -61 -14 -25 4 44 21 22 26 -33 6z"/>
<path d="M127 1236 c-39 -14 -55 -25 -99 -65 l-28 -25 0 -149 0 -150 30 -28
c90 -87 249 -75 314 24 24 37 27 50 24 104 -3 55 -8 67 -38 98 -62 64 -161 55
-197 -19 -20 -44 -11 -99 22 -125 26 -20 64 -18 66 3 0 6 2 24 2 40 4 62 69
59 75 -3 6 -64 -61 -118 -130 -104 -79 15 -128 78 -128 162 0 131 160 221 287
160 117 -57 166 -202 109 -325 -39 -84 -138 -151 -238 -161 -48 -5 -125 9
-180 32 -17 7 -18 -14 -18 -349 l0 -356 1046 0 1047 0 -7 68 c-8 83 -26 339
-26 369 0 17 -5 21 -23 18 -27 -5 -94 45 -108 82 -6 15 -15 23 -23 20 -8 -3
-17 -3 -20 0 -7 7 19 33 33 33 6 0 2 9 -8 19 -11 11 -18 28 -16 38 2 10 9 48
16 86 8 46 16 67 25 67 12 0 12 4 4 20 -6 11 -11 39 -12 63 -1 52 -23 91 -38
67 -6 -9 -10 -10 -10 -3 0 20 20 26 37 11 14 -11 16 -11 11 4 -7 17 24 53 35
41 4 -3 7 -1 7 5 0 16 -15 15 -32 -1 -18 -17 -132 -87 -196 -120 -67 -35 -215
-74 -312 -82 -68 -5 -148 2 -237 21 l-33 6 25 -73 c36 -105 26 -105 -18 -2
-32 77 -42 91 -72 105 -33 15 -35 15 -35 -3 0 -11 -4 -19 -10 -19 -5 0 -10 7
-10 17 0 14 -2 14 -20 -2 -18 -16 -20 -16 -20 -2 0 10 -5 17 -11 17 -5 0 -8
-4 -5 -9 3 -5 -1 -14 -9 -21 -13 -10 -15 -9 -15 10 0 19 -2 21 -16 9 -8 -7
-24 -29 -34 -48 -23 -44 -25 -29 -5 30 15 44 15 44 -4 21 l-19 -22 -10 27 c-6
16 -11 23 -11 16 -1 -18 -78 4 -154 44 l-37 21 22 15 c19 13 13 12 -37 -2 -47
-15 -61 -24 -66 -43 -19 -72 -91 -178 -120 -178 -15 0 -11 22 16 90 14 36 23
70 21 77 -3 7 0 15 6 19 15 9 2 107 -21 158 -26 59 -96 123 -158 146 -62 23
-150 26 -206 6z"/>
<path d="M2524 240 c3 -8 7 -33 10 -55 10 -93 29 -177 36 -165 6 9 10 8 14 -6
3 -10 3 2 1 28 -3 29 0 50 7 54 6 4 8 3 5 -3 -4 -6 -3 -30 2 -54 5 -24 9 -37
10 -28 1 9 8 20 17 23 12 4 15 2 11 -9 -4 -8 -2 -17 2 -20 12 -7 22 21 15 43
-5 14 -4 15 5 2 6 -8 8 -23 5 -32 -4 -14 0 -18 18 -18 13 0 30 6 37 12 11 11
13 11 7 0 -5 -8 1 -12 19 -12 25 0 26 1 9 23 -21 26 -82 78 -70 58 6 -10 5
-12 -3 -7 -6 4 -9 11 -7 15 3 4 -31 43 -75 87 -44 43 -78 72 -75 64z"/>
</g>
</svg>
